<svg version="1.1" id="Layer_1" xmlns="http://www.w3.org/2000/svg" xmlns:xlink="http://www.w3.org/1999/xlink" x="0px" y="0px"
	 width="100%" viewBox="0 0 176 139" enable-background="new 0 0 176 139" xml:space="preserve">
<path fill="#0C0E0C" opacity="1.000000" stroke="none" 
	d="
M79.000000,1.000000 
	C111.643745,1.000000 144.287491,1.000000 176.965622,1.000000 
	C176.965622,47.277882 176.965622,93.555794 176.965622,139.916855 
	C118.430031,139.916855 59.859913,139.916855 1.144894,139.916855 
	C1.144894,93.666962 1.144894,47.333553 1.144894,1.000000 
	C24.762447,1.000000 48.412567,1.000000 72.795715,1.368393 
	C73.349319,3.877238 73.169884,6.017690 73.004105,7.995255 
	C78.360596,9.581760 79.788429,7.648109 79.021652,3.311063 
	C78.889359,2.562821 79.001022,1.771449 79.000000,1.000000 
M38.104294,22.045206 
	C38.104294,22.045206 38.064846,22.054588 37.260818,22.104837 
	C33.447392,21.757360 32.066887,23.711357 32.152367,27.561850 
	C32.152367,27.561850 31.934082,27.863491 31.120083,27.892082 
	C28.201626,27.826506 26.943829,29.306562 27.038836,32.161999 
	C27.104494,34.135357 27.049284,36.112740 27.026356,38.032822 
	C27.026356,38.032822 27.085335,38.041412 26.259100,38.117115 
	C22.140121,37.974121 20.713593,40.070969 20.962067,44.017559 
	C21.191570,47.662868 21.195423,51.344349 20.975311,54.990379 
	C20.706362,59.445423 22.208647,62.071880 27.014595,61.980564 
	C27.014595,61.980564 27.002661,61.983082 26.963743,62.892914 
	C27.748959,66.692230 24.242186,72.726189 32.394039,73.052483 
	C32.394039,73.052483 32.676598,73.250168 32.711025,74.025406 
	C32.704784,77.687195 35.147079,78.125237 38.185448,78.410072 
	C38.185448,78.410072 38.387455,78.781189 38.329689,79.587990 
	C37.931492,84.126373 40.926231,84.102196 44.893078,83.947617 
	C46.254578,83.989922 47.616074,84.032227 49.140007,84.807053 
	C50.569633,86.097809 51.811039,88.041916 53.474464,88.521126 
	C55.778812,89.184998 58.407230,88.644127 60.884674,88.806030 
	C64.461510,89.039780 66.639717,87.722145 67.743050,83.895439 
	C69.451744,83.857559 71.160446,83.819679 73.684494,83.860481 
	C77.534500,84.216293 78.400826,82.048691 78.620819,78.345299 
	C80.190323,78.130272 81.759827,77.915245 83.577469,77.666222 
	C83.774422,75.258301 83.967690,72.895401 84.075836,70.593330 
	C84.075836,70.593330 84.022789,70.683502 84.806496,71.087593 
	C86.358719,71.087593 87.910942,71.087593 89.613037,71.087593 
	C89.799393,67.380173 89.946518,64.453217 90.096771,61.464035 
	C92.006676,61.131649 93.565086,60.860435 96.276039,60.388638 
	C95.364784,56.469566 94.582352,52.865757 93.561356,49.330853 
	C93.502632,49.127491 91.500587,49.485420 90.461334,49.576984 
	C90.089668,51.315281 89.790436,52.714787 89.480492,54.164383 
	C85.306229,54.164383 81.415466,54.164383 77.605316,54.164383 
	C77.108170,52.263569 76.709969,50.741035 76.240677,48.946709 
	C73.010475,48.946709 70.051651,48.946709 66.741432,48.946709 
	C66.466507,45.550377 66.218010,42.480450 65.964493,39.348587 
	C64.164055,38.984314 62.610676,38.670025 60.588970,38.260986 
	C62.164906,33.112556 57.917820,33.953983 55.231583,32.968220 
	C55.100864,31.258480 54.975418,29.617613 54.959503,27.178457 
	C55.023781,25.831610 55.088055,24.484764 55.975922,23.098726 
	C57.378922,22.970991 58.781918,22.843256 60.268875,22.707878 
	C60.268875,18.700308 60.268875,15.137767 60.268875,11.346911 
	C56.659275,11.346911 53.432858,11.346911 49.912178,11.346911 
	C49.963097,15.541861 48.186275,17.713255 43.142803,16.926548 
	C38.827583,16.068996 37.909115,18.536890 38.104294,22.045206 
M86.894684,109.498154 
	C86.894684,113.946198 86.894684,118.394234 86.894684,122.795174 
	C91.305176,124.131660 93.117516,123.030151 92.770523,118.756172 
	C92.542656,115.949371 92.727470,113.109055 92.727470,110.283752 
	C94.814995,112.177872 95.566399,114.196121 96.647560,116.018776 
	C97.331665,117.172050 98.507545,118.033600 99.462868,119.025986 
	C100.439056,118.072067 101.682121,117.270233 102.331772,116.130234 
	C103.432785,114.198174 104.159187,112.052635 105.043060,109.996841 
	C105.422073,110.069534 105.801086,110.142235 106.180099,110.214935 
	C106.180099,114.408340 106.180099,118.601746 106.180099,122.896179 
	C108.484314,122.896179 110.163666,122.896179 111.762924,122.896179 
	C111.762924,113.492676 111.762924,104.564064 111.762924,95.792320 
	C107.645668,94.294724 105.448311,95.583710 104.167870,99.320450 
	C102.990196,102.757271 101.355690,106.037560 99.541435,110.277122 
	C97.737343,105.923431 96.107498,102.788956 95.140137,99.461861 
	C93.808296,94.881180 91.096214,94.442390 86.898598,95.957451 
	C86.898598,100.213448 86.898598,104.360329 86.894684,109.498154 
M58.621754,121.581467 
	C57.238365,117.226974 53.681629,113.504776 58.342056,108.295769 
	C61.747169,104.489853 58.613594,97.164482 53.855705,96.120697 
	C49.786625,95.228012 45.478218,95.426270 40.935272,95.118973 
	C40.935272,104.993835 40.935272,113.895119 40.935272,123.299820 
	C42.938206,123.190216 44.614773,123.098473 46.157288,123.014061 
	C46.578968,119.448082 46.925552,116.517151 47.272137,113.586220 
	C47.822529,113.502777 48.372921,113.419334 48.923313,113.335892 
	C49.965458,115.642838 51.110271,117.909874 52.025997,120.265953 
	C53.445496,123.918213 55.639103,124.559914 58.621754,121.581467 
M142.650833,109.932365 
	C144.636902,110.764496 146.750626,111.388176 148.565643,112.499619 
	C149.846603,113.284019 151.071381,114.591469 151.609909,115.947845 
	C151.829834,116.501762 150.227127,118.536781 149.355896,118.602516 
	C147.740814,118.724380 145.047623,118.367615 144.579361,117.373581 
	C142.964447,113.945259 140.779663,114.577705 138.174301,115.209488 
	C139.219620,122.712929 146.277481,126.008736 153.147385,122.562675 
	C158.583221,119.835976 159.206482,112.442337 154.128799,109.093987 
	C152.083603,107.745338 149.515121,107.207176 147.401855,105.938545 
	C146.130447,105.175285 145.104950,103.811279 144.370270,102.493492 
	C144.207901,102.202271 145.772705,100.276222 146.484711,100.310127 
	C147.940720,100.379456 149.365265,101.249702 150.788849,101.824570 
	C152.500763,102.515862 154.198212,103.243019 156.752289,104.309845 
	C156.080017,98.330772 153.980621,95.497299 149.545898,94.978516 
	C145.375259,94.490616 141.334229,95.071930 139.354309,99.387001 
	C137.560486,103.296494 138.478500,106.851364 142.650833,109.932365 
M67.330185,95.310638 
	C65.956161,95.828133 63.390038,96.341171 63.388088,96.863785 
	C63.361572,103.963722 63.084473,111.156685 64.140289,118.134361 
	C64.869972,122.956688 69.553017,124.014656 74.005745,123.649475 
	C78.827515,123.254021 81.900375,120.348152 82.028503,115.741882 
	C82.208221,109.281036 81.967964,102.808205 81.872856,96.341011 
	C81.868889,96.071510 81.515640,95.807144 81.098648,95.223305 
	C79.903183,95.355156 78.522675,95.507408 76.800613,95.697342 
	C76.800613,100.567352 77.031364,105.045517 76.726036,109.486832 
	C76.490822,112.908203 78.513123,118.534554 72.694794,118.393242 
	C66.883339,118.252075 69.390266,112.634880 69.009972,109.246841 
	C68.500404,104.707123 68.431015,100.117996 67.330185,95.310638 
M129.390854,113.138573 
	C134.535126,110.931351 136.117035,108.056068 135.296646,102.617767 
	C134.583694,97.891541 131.557465,95.715012 127.116875,95.389954 
	C123.864212,95.151848 120.580093,95.343300 117.122955,95.343300 
	C117.122955,104.896172 117.122955,113.914398 117.122955,123.024788 
	C119.140999,123.024788 120.713135,123.024788 122.492546,123.024788 
	C122.745239,119.806313 122.971718,116.921761 123.195366,114.073204 
	C125.315956,113.783150 126.957184,113.558662 129.390854,113.138573 
M25.025301,100.515099 
	C27.480188,99.596786 29.334883,99.747421 30.865057,102.431740 
	C31.608370,103.735695 33.648823,104.300224 35.633591,105.528412 
	C36.006016,98.991699 34.609375,96.726715 30.359121,95.411903 
	C25.471310,93.899879 19.214066,95.488304 18.451599,99.740860 
	C17.347471,105.898972 17.252094,112.543427 18.352068,118.689476 
	C19.155321,123.177605 25.603321,124.847664 30.632023,123.099373 
	C34.490540,121.757904 36.674877,119.299957 35.486275,113.205826 
	C33.217426,114.895401 31.754589,116.120285 30.155865,117.130020 
	C28.994013,117.863831 27.553949,118.912102 26.418110,118.725197 
	C25.221497,118.528297 23.304230,117.015823 23.318272,116.103012 
	C23.395597,111.076675 23.967764,106.057945 25.025301,100.515099 
M93.774307,15.662282 
	C94.019073,12.545716 91.771225,11.484532 89.792793,12.619008 
	C88.318062,13.464650 87.934471,16.213123 87.064941,18.114180 
	C87.704041,18.679506 88.343147,19.244835 88.982246,19.810162 
	C90.575951,18.694990 92.169647,17.579819 93.774307,15.662282 
M78.176750,21.918964 
	C72.452751,19.990278 71.459679,20.969778 72.740822,27.486719 
	C74.405830,27.486719 76.101334,27.486719 77.949112,27.486719 
	C78.097588,25.644226 78.216614,24.167107 78.176750,21.918964 
M86.942513,39.463844 
	C86.697586,34.718834 83.885925,35.957954 80.852356,36.802738 
	C80.942825,38.729725 81.023705,40.452362 81.191078,44.017437 
	C83.836021,42.299149 85.389420,41.289982 86.942513,39.463844 
M96.911804,29.438974 
	C95.993156,28.431274 95.215485,27.165277 94.083916,26.547720 
	C93.653595,26.312870 91.938278,27.403332 91.663551,28.188786 
	C91.361053,29.053616 92.041878,30.262384 92.294319,31.321318 
	C93.811905,30.946978 95.329491,30.572636 96.911804,29.438974 
M104.357315,15.184603 
	C105.043602,14.209066 106.034187,13.299966 106.268707,12.225797 
	C106.364563,11.786734 104.815460,10.481616 104.030327,10.494887 
	C103.188393,10.509118 101.579666,11.824750 101.681252,12.197123 
	C101.979767,13.291316 102.960693,14.199336 104.357315,15.184603 
z"/>
<path fill="#61A434" opacity="1.000000" stroke="none" 
	d="
M78.571533,1.000000 
	C79.001022,1.771449 78.889359,2.562821 79.021652,3.311063 
	C79.788429,7.648109 78.360596,9.581760 73.004105,7.995255 
	C73.169884,6.017690 73.349319,3.877238 73.264374,1.368393 
	C74.714355,1.000000 76.428719,1.000000 78.571533,1.000000 
z"/>
<path fill="#67B037" opacity="1.000000" stroke="none" 
	d="
M84.160957,70.532486 
	C83.967690,72.895401 83.774422,75.258301 83.577469,77.666222 
	C81.759827,77.915245 80.190323,78.130272 77.884300,78.530838 
	C75.774345,78.688553 74.400902,78.660713 73.003654,78.256020 
	C72.131851,73.574913 69.265198,71.710976 68.188606,74.169678 
	C65.433342,80.462029 60.360023,78.713043 55.747665,78.415482 
	C55.800797,75.865326 55.774693,73.750435 55.816204,71.636871 
	C55.885891,68.088974 53.308201,67.883377 51.203629,68.751434 
	C50.102558,69.205589 49.812294,71.625511 48.749077,73.155151 
	C42.666573,72.365601 38.087799,67.468513 38.478180,62.152039 
	C40.849293,61.978725 43.307739,62.837124 43.289082,59.337757 
	C43.267231,55.240608 40.424896,56.378838 37.753078,56.259434 
	C33.075352,56.370441 31.852627,53.874054 32.117424,50.165150 
	C32.384373,46.426075 31.174860,43.991974 26.921593,43.606190 
	C26.941319,41.467136 27.013327,39.754276 27.085335,38.041412 
	C27.085335,38.041412 27.026356,38.032822 27.460459,38.076752 
	C31.139042,38.449768 32.361168,36.848785 32.146996,33.762108 
	C32.010883,31.800423 32.000725,29.829996 31.934082,27.863491 
	C31.934082,27.863491 32.152367,27.561850 32.644981,27.383224 
	C36.560722,27.191616 38.124580,25.399788 38.064846,22.054588 
	C38.064846,22.054588 38.104294,22.045206 38.491539,22.067436 
	C42.492435,22.360455 43.812382,20.311577 43.954113,17.071144 
	C48.186275,17.713255 49.963097,15.541861 49.912178,11.346911 
	C53.432858,11.346911 56.659275,11.346911 60.268875,11.346911 
	C60.268875,15.137767 60.268875,18.700308 60.268875,22.707878 
	C58.781918,22.843256 57.378922,22.970991 55.158333,23.091103 
	C52.741432,23.780886 51.142117,24.478292 49.542805,25.175701 
	C50.992290,26.076519 52.431751,26.994307 53.900906,27.861813 
	C54.152245,28.010225 54.530399,27.943882 54.849968,27.976746 
	C54.975418,29.617613 55.100864,31.258480 55.231583,32.968220 
	C57.917820,33.953983 62.164906,33.112556 60.588970,38.260986 
	C62.610676,38.670025 64.164055,38.984314 65.964493,39.348587 
	C66.218010,42.480450 66.466507,45.550377 66.741432,48.946709 
	C70.051651,48.946709 73.010475,48.946709 76.240677,48.946709 
	C76.709969,50.741035 77.108170,52.263569 77.605316,54.164383 
	C81.415466,54.164383 85.306229,54.164383 89.480492,54.164383 
	C89.790436,52.714787 90.089668,51.315281 90.461334,49.576984 
	C91.500587,49.485420 93.502632,49.127491 93.561356,49.330853 
	C94.582352,52.865757 95.364784,56.469566 96.276039,60.388638 
	C93.565086,60.860435 92.006676,61.131649 90.096771,61.464035 
	C89.946518,64.453217 89.799393,67.380173 89.613037,71.087593 
	C87.910942,71.087593 86.358719,71.087593 84.361465,70.513107 
	C83.865242,67.786575 84.122719,65.199837 80.765793,65.896034 
	C79.757812,66.105087 78.325996,67.513451 78.261955,68.452438 
	C78.023491,71.948868 80.761810,71.038048 82.775497,71.000923 
	C83.240036,70.992363 83.699272,70.696266 84.160957,70.532486 
M43.741520,38.595570 
	C43.447208,32.867805 43.205402,32.675831 38.255474,34.218216 
	C38.255474,37.328304 38.255474,40.428852 38.255474,43.498524 
	C42.236336,44.626366 44.494080,43.948315 43.741520,38.595570 
M72.563293,57.034668 
	C70.833168,56.657608 69.103050,56.280544 67.219673,55.870087 
	C67.219673,59.538254 67.219673,62.271015 67.219673,65.407867 
	C69.183151,65.319633 70.752808,65.249092 72.742882,65.159668 
	C72.742882,62.455112 72.742882,60.169704 72.563293,57.034668 
M55.565022,49.137547 
	C57.142372,49.522301 58.719727,49.907055 60.970234,50.456009 
	C60.765549,47.945866 60.641773,46.427929 60.521217,44.949520 
	C57.223484,44.433491 54.397572,43.847504 55.565022,49.137547 
z"/>
<path fill="#65AC36" opacity="1.000000" stroke="none" 
	d="
M86.896637,109.002686 
	C86.898598,104.360329 86.898598,100.213448 86.898598,95.957451 
	C91.096214,94.442390 93.808296,94.881180 95.140137,99.461861 
	C96.107498,102.788956 97.737343,105.923431 99.541435,110.277122 
	C101.355690,106.037560 102.990196,102.757271 104.167870,99.320450 
	C105.448311,95.583710 107.645668,94.294724 111.762924,95.792320 
	C111.762924,104.564064 111.762924,113.492676 111.762924,122.896179 
	C110.163666,122.896179 108.484314,122.896179 106.180099,122.896179 
	C106.180099,118.601746 106.180099,114.408340 106.180099,110.214935 
	C105.801086,110.142235 105.422073,110.069534 105.043060,109.996841 
	C104.159187,112.052635 103.432785,114.198174 102.331772,116.130234 
	C101.682121,117.270233 100.439056,118.072067 99.462868,119.025986 
	C98.507545,118.033600 97.331665,117.172050 96.647560,116.018776 
	C95.566399,114.196121 94.814995,112.177872 92.727470,110.283752 
	C92.727470,113.109055 92.542656,115.949371 92.770523,118.756172 
	C93.117516,123.030151 91.305176,124.131660 86.894684,122.795174 
	C86.894684,118.394234 86.894684,113.946198 86.896637,109.002686 
z"/>
<path fill="#388536" opacity="1.000000" stroke="none" 
	d="
M55.698826,78.851334 
	C60.360023,78.713043 65.433342,80.462029 68.188606,74.169678 
	C69.265198,71.710976 72.131851,73.574913 72.993584,78.688316 
	C72.961266,80.925575 72.915199,82.353683 72.869141,83.781792 
	C71.160446,83.819679 69.451744,83.857559 66.856895,83.920044 
	C60.306351,83.987946 54.641964,84.031242 48.977573,84.074539 
	C47.616074,84.032227 46.254578,83.989922 44.445877,83.530403 
	C43.936962,79.326393 41.304459,78.869537 38.387455,78.781189 
	C38.387455,78.781189 38.185448,78.410072 38.081070,77.831741 
	C37.952293,73.612274 35.545616,73.125160 32.676598,73.250168 
	C32.676598,73.250168 32.394039,73.052483 32.269848,72.495987 
	C31.319805,68.161736 34.580967,62.272839 27.002661,61.983082 
	C27.002661,61.983082 27.014595,61.980564 27.013622,61.518257 
	C26.999723,55.381428 26.986801,49.706902 26.973877,44.032379 
	C31.174860,43.991974 32.384373,46.426075 32.117424,50.165150 
	C31.852627,53.874054 33.075352,56.370441 37.680031,56.667339 
	C38.034142,58.791691 38.040054,60.466110 38.045967,62.140530 
	C38.087799,67.468513 42.666573,72.365601 48.802647,73.536995 
	C48.819172,78.944550 52.144646,79.047226 55.698826,78.851334 
z"/>
<path fill="#65AB35" opacity="1.000000" stroke="none" 
	d="
M58.696976,121.937256 
	C55.639103,124.559914 53.445496,123.918213 52.025997,120.265953 
	C51.110271,117.909874 49.965458,115.642838 48.923313,113.335892 
	C48.372921,113.419334 47.822529,113.502777 47.272137,113.586220 
	C46.925552,116.517151 46.578968,119.448082 46.157288,123.014061 
	C44.614773,123.098473 42.938206,123.190216 40.935272,123.299820 
	C40.935272,113.895119 40.935272,104.993835 40.935272,95.118973 
	C45.478218,95.426270 49.786625,95.228012 53.855705,96.120697 
	C58.613594,97.164482 61.747169,104.489853 58.342056,108.295769 
	C53.681629,113.504776 57.238365,117.226974 58.696976,121.937256 
M51.649948,107.773766 
	C52.002541,105.748466 52.698662,103.685455 52.483131,101.722534 
	C52.424065,101.184616 48.604465,100.241058 48.287888,100.702644 
	C47.317741,102.117126 46.661057,104.232239 46.981903,105.857918 
	C47.164036,106.780769 49.496937,107.279160 51.649948,107.773766 
z"/>
<path fill="#65AB35" opacity="1.000000" stroke="none" 
	d="
M142.343750,109.730026 
	C138.478500,106.851364 137.560486,103.296494 139.354309,99.387001 
	C141.334229,95.071930 145.375259,94.490616 149.545898,94.978516 
	C153.980621,95.497299 156.080017,98.330772 156.752289,104.309845 
	C154.198212,103.243019 152.500763,102.515862 150.788849,101.824570 
	C149.365265,101.249702 147.940720,100.379456 146.484711,100.310127 
	C145.772705,100.276222 144.207901,102.202271 144.370270,102.493492 
	C145.104950,103.811279 146.130447,105.175285 147.401855,105.938545 
	C149.515121,107.207176 152.083603,107.745338 154.128799,109.093987 
	C159.206482,112.442337 158.583221,119.835976 153.147385,122.562675 
	C146.277481,126.008736 139.219620,122.712929 138.174301,115.209488 
	C140.779663,114.577705 142.964447,113.945259 144.579361,117.373581 
	C145.047623,118.367615 147.740814,118.724380 149.355896,118.602516 
	C150.227127,118.536781 151.829834,116.501762 151.609909,115.947845 
	C151.071381,114.591469 149.846603,113.284019 148.565643,112.499619 
	C146.750626,111.388176 144.636902,110.764496 142.343750,109.730026 
z"/>
<path fill="#66AC36" opacity="1.000000" stroke="none" 
	d="
M67.751404,95.430359 
	C68.431015,100.117996 68.500404,104.707123 69.009972,109.246841 
	C69.390266,112.634880 66.883339,118.252075 72.694794,118.393242 
	C78.513123,118.534554 76.490822,112.908203 76.726036,109.486832 
	C77.031364,105.045517 76.800613,100.567352 76.800613,95.697342 
	C78.522675,95.507408 79.903183,95.355156 81.098648,95.223305 
	C81.515640,95.807144 81.868889,96.071510 81.872856,96.341011 
	C81.967964,102.808205 82.208221,109.281036 82.028503,115.741882 
	C81.900375,120.348152 78.827515,123.254021 74.005745,123.649475 
	C69.553017,124.014656 64.869972,122.956688 64.140289,118.134361 
	C63.084473,111.156685 63.361572,103.963722 63.388088,96.863785 
	C63.390038,96.341171 65.956161,95.828133 67.751404,95.430359 
z"/>
<path fill="#65AB36" opacity="1.000000" stroke="none" 
	d="
M128.994629,113.236374 
	C126.957184,113.558662 125.315956,113.783150 123.195366,114.073204 
	C122.971718,116.921761 122.745239,119.806313 122.492546,123.024788 
	C120.713135,123.024788 119.140999,123.024788 117.122955,123.024788 
	C117.122955,113.914398 117.122955,104.896172 117.122955,95.343300 
	C120.580093,95.343300 123.864212,95.151848 127.116875,95.389954 
	C131.557465,95.715012 134.583694,97.891541 135.296646,102.617767 
	C136.117035,108.056068 134.535126,110.931351 128.994629,113.236374 
M125.232895,100.391258 
	C120.961739,101.225655 123.270622,104.536430 123.041954,106.767761 
	C122.991852,107.256577 125.059464,108.606422 125.830070,108.393776 
	C127.197838,108.016350 129.400620,106.641609 129.325928,105.871017 
	C129.153488,104.092155 127.847862,102.413612 126.938744,100.728439 
	C126.832115,100.530807 126.329651,100.546722 125.232895,100.391258 
z"/>
<path fill="#64AA35" opacity="1.000000" stroke="none" 
	d="
M24.697735,100.775848 
	C23.967764,106.057945 23.395597,111.076675 23.318272,116.103012 
	C23.304230,117.015823 25.221497,118.528297 26.418110,118.725197 
	C27.553949,118.912102 28.994013,117.863831 30.155865,117.130020 
	C31.754589,116.120285 33.217426,114.895401 35.486275,113.205826 
	C36.674877,119.299957 34.490540,121.757904 30.632023,123.099373 
	C25.603321,124.847664 19.155321,123.177605 18.352068,118.689476 
	C17.252094,112.543427 17.347471,105.898972 18.451599,99.740860 
	C19.214066,95.488304 25.471310,93.899879 30.359121,95.411903 
	C34.609375,96.726715 36.006016,98.991699 35.633591,105.528412 
	C33.648823,104.300224 31.608370,103.735695 30.865057,102.431740 
	C29.334883,99.747421 27.480188,99.596786 24.697735,100.775848 
z"/>
<path fill="#1B5630" opacity="1.000000" stroke="none" 
	d="
M26.921593,43.606190 
	C26.986801,49.706902 26.999723,55.381428 27.017855,61.523720 
	C22.208647,62.071880 20.706362,59.445423 20.975311,54.990379 
	C21.195423,51.344349 21.191570,47.662868 20.962067,44.017559 
	C20.713593,40.070969 22.140121,37.974121 26.672218,38.079262 
	C27.013327,39.754276 26.941319,41.467136 26.921593,43.606190 
z"/>
<path fill="#184D2D" opacity="1.000000" stroke="none" 
	d="
M49.058792,84.440796 
	C54.641964,84.031242 60.306351,83.987946 66.429428,83.940598 
	C66.639717,87.722145 64.461510,89.039780 60.884674,88.806030 
	C58.407230,88.644127 55.778812,89.184998 53.474464,88.521126 
	C51.811039,88.041916 50.569633,86.097809 49.058792,84.440796 
z"/>
<path fill="#195430" opacity="1.000000" stroke="none" 
	d="
M26.983202,62.437996 
	C34.580967,62.272839 31.319805,68.161736 32.140274,72.382233 
	C24.242186,72.726189 27.748959,66.692230 26.983202,62.437996 
z"/>
<path fill="#1A5832" opacity="1.000000" stroke="none" 
	d="
M31.527082,27.877787 
	C32.000725,29.829996 32.010883,31.800423 32.146996,33.762108 
	C32.361168,36.848785 31.139042,38.449768 27.471323,38.104500 
	C27.049284,36.112740 27.104494,34.135357 27.038836,32.161999 
	C26.943829,29.306562 28.201626,27.826506 31.527082,27.877787 
z"/>
<path fill="#61A434" opacity="1.000000" stroke="none" 
	d="
M93.768829,16.063465 
	C92.169647,17.579819 90.575951,18.694990 88.982246,19.810162 
	C88.343147,19.244835 87.704041,18.679506 87.064941,18.114180 
	C87.934471,16.213123 88.318062,13.464650 89.792793,12.619008 
	C91.771225,11.484532 94.019073,12.545716 93.768829,16.063465 
z"/>
<path fill="#63A835" opacity="1.000000" stroke="none" 
	d="
M78.256195,22.304476 
	C78.216614,24.167107 78.097588,25.644226 77.949112,27.486719 
	C76.101334,27.486719 74.405830,27.486719 72.740822,27.486719 
	C71.459679,20.969778 72.452751,19.990278 78.256195,22.304476 
z"/>
<path fill="#5E9F32" opacity="1.000000" stroke="none" 
	d="
M86.942665,39.872330 
	C85.389420,41.289982 83.836021,42.299149 81.191078,44.017437 
	C81.023705,40.452362 80.942825,38.729725 80.852356,36.802738 
	C83.885925,35.957954 86.697586,34.718834 86.942665,39.872330 
z"/>
<path fill="#548D2E" opacity="1.000000" stroke="none" 
	d="
M96.879440,29.818634 
	C95.329491,30.572636 93.811905,30.946978 92.294319,31.321320 
	C92.041878,30.262384 91.361053,29.053616 91.663551,28.188786 
	C91.938278,27.403332 93.653595,26.312870 94.083916,26.547720 
	C95.215485,27.165277 95.993156,28.431274 96.879440,29.818634 
z"/>
<path fill="#56902F" opacity="1.000000" stroke="none" 
	d="
M104.015869,15.182428 
	C102.960693,14.199336 101.979767,13.291316 101.681252,12.197123 
	C101.579666,11.824750 103.188393,10.509118 104.030327,10.494887 
	C104.815460,10.481616 106.364563,11.786734 106.268707,12.225797 
	C106.034187,13.299966 105.043602,14.209066 104.015869,15.182428 
z"/>
<path fill="#3D8A37" opacity="1.000000" stroke="none" 
	d="
M54.904736,27.577602 
	C54.530399,27.943882 54.152245,28.010225 53.900906,27.861813 
	C52.431751,26.994307 50.992290,26.076519 49.542805,25.175701 
	C51.142117,24.478292 52.741432,23.780886 54.746536,23.110697 
	C55.088055,24.484764 55.023781,25.831610 54.904736,27.577602 
z"/>
<path fill="#337631" opacity="1.000000" stroke="none" 
	d="
M37.662834,22.079712 
	C38.124580,25.399788 36.560722,27.191616 32.758034,27.235313 
	C32.066887,23.711357 33.447392,21.757360 37.662834,22.079712 
z"/>
<path fill="#195430" opacity="1.000000" stroke="none" 
	d="
M38.358574,79.184586 
	C41.304459,78.869537 43.936962,79.326393 44.039330,83.488693 
	C40.926231,84.102196 37.931492,84.126373 38.358574,79.184586 
z"/>
<path fill="#388536" opacity="1.000000" stroke="none" 
	d="
M43.548458,16.998846 
	C43.812382,20.311577 42.492435,22.360455 38.486053,22.086987 
	C37.909115,18.536890 38.827583,16.068996 43.548458,16.998846 
z"/>
<path fill="#1B5630" opacity="1.000000" stroke="none" 
	d="
M73.276817,83.821136 
	C72.915199,82.353683 72.961266,80.925575 73.017395,79.065170 
	C74.400902,78.660713 75.774345,78.688553 77.561172,78.752144 
	C78.400826,82.048691 77.534500,84.216293 73.276817,83.821136 
z"/>
<path fill="#1A5832" opacity="1.000000" stroke="none" 
	d="
M32.693810,73.637787 
	C35.545616,73.125160 37.952293,73.612274 37.983559,77.644333 
	C35.147079,78.125237 32.704784,77.687195 32.693810,73.637787 
z"/>
<path fill="#152112" opacity="1.000000" stroke="none" 
	d="
M55.747665,78.415482 
	C52.144646,79.047226 48.819172,78.944550 49.209415,73.539474 
	C49.812294,71.625511 50.102558,69.205589 51.203629,68.751434 
	C53.308201,67.883377 55.885891,68.088974 55.816204,71.636871 
	C55.774693,73.750435 55.800797,75.865326 55.747665,78.415482 
z"/>
<path fill="#131B10" opacity="1.000000" stroke="none" 
	d="
M43.752747,39.026573 
	C44.494080,43.948315 42.236336,44.626366 38.255474,43.498524 
	C38.255474,40.428852 38.255474,37.328304 38.255474,34.218216 
	C43.205402,32.675831 43.447208,32.867805 43.752747,39.026573 
z"/>
<path fill="#11180F" opacity="1.000000" stroke="none" 
	d="
M72.653091,57.459480 
	C72.742882,60.169704 72.742882,62.455112 72.742882,65.159668 
	C70.752808,65.249092 69.183151,65.319633 67.219673,65.407867 
	C67.219673,62.271015 67.219673,59.538254 67.219673,55.870087 
	C69.103050,56.280544 70.833168,56.657608 72.653091,57.459480 
z"/>
<path fill="#12190F" opacity="1.000000" stroke="none" 
	d="
M55.424339,48.758247 
	C54.397572,43.847504 57.223484,44.433491 60.521217,44.949520 
	C60.641773,46.427929 60.765549,47.945866 60.970234,50.456009 
	C58.719727,49.907055 57.142372,49.522301 55.424339,48.758247 
z"/>
<path fill="#10150E" opacity="1.000000" stroke="none" 
	d="
M38.478184,62.152039 
	C38.040054,60.466110 38.034142,58.791691 38.101280,56.709366 
	C40.424896,56.378838 43.267231,55.240608 43.289082,59.337757 
	C43.307739,62.837124 40.849293,61.978725 38.478184,62.152039 
z"/>
<path fill="#12190F" opacity="1.000000" stroke="none" 
	d="
M84.118393,70.562912 
	C83.699272,70.696266 83.240036,70.992363 82.775497,71.000923 
	C80.761810,71.038048 78.023491,71.948868 78.261955,68.452438 
	C78.325996,67.513451 79.757812,66.105087 80.765793,65.896034 
	C84.122719,65.199837 83.865242,67.786575 83.969612,70.311066 
	C84.022789,70.683502 84.075836,70.593330 84.118393,70.562912 
z"/>
<path fill="#12190F" opacity="1.000000" stroke="none" 
	d="
M51.255585,107.871239 
	C49.496937,107.279160 47.164036,106.780769 46.981903,105.857918 
	C46.661057,104.232239 47.317741,102.117126 48.287888,100.702644 
	C48.604465,100.241058 52.424065,101.184616 52.483131,101.722534 
	C52.698662,103.685455 52.002541,105.748466 51.255585,107.871239 
z"/>
<path fill="#131B10" opacity="1.000000" stroke="none" 
	d="
M125.621796,100.427444 
	C126.329651,100.546722 126.832115,100.530807 126.938744,100.728439 
	C127.847862,102.413612 129.153488,104.092155 129.325928,105.871017 
	C129.400620,106.641609 127.197838,108.016350 125.830070,108.393776 
	C125.059464,108.606422 122.991852,107.256577 123.041954,106.767761 
	C123.270622,104.536430 120.961739,101.225655 125.621796,100.427444 
z"/>
</svg>